<?xml version="1.0" encoding="utf-8"?>
<!-- Generator: Adobe Illustrator 23.0.4, SVG Export Plug-In . SVG Version: 6.00 Build 0)  -->
<svg version="1.1" id="Capa_1" xmlns="http://www.w3.org/2000/svg" xmlns:xlink="http://www.w3.org/1999/xlink" x="0px" y="0px"
	 viewBox="0 0 512 512" style="enable-background:new 0 0 512 512;" xml:space="preserve">
<style type="text/css">
	.st0{fill:#FFFFFF;}
</style>
<g>
	<g>
		<g>
			<path class="st0" d="M381.5,166.4l-47.1-52.2c-1-1.1-2.3-1.7-3.7-1.7H177c-8.6,0-15.5,7.7-15.5,17.2v10.9
				c-25.4,11.1-43.5,38.5-43.5,70.6c0,3.2,2.3,5.7,5.2,5.7h63.2c2.9,0,5.2-2.6,5.2-5.7v-70.1c0-3.2-2.3-5.7-5.2-5.7
				c-5,0-9.9,0.6-14.5,1.7v-7.5c0-3.2,2.3-5.7,5.2-5.7h148.5v35c0,9.5,7,17.2,15.5,17.2h31.6v212.9c0,3.2-2.3,5.7-5.2,5.7H177
				c-2.9,0-5.2-2.6-5.2-5.7V340c0-3.2-2.3-5.7-5.2-5.7s-5.2,2.6-5.2,5.7v49.2c0,9.5,7,17.2,15.5,17.2h190.5
				c8.6,0,15.5-7.7,15.5-17.2V170.5C383,169,382.5,167.5,381.5,166.4z M181.2,147.2v58.3h-52.6C131.1,174.6,153.3,150,181.2,147.2z
				 M341.1,164.7c-2.9,0-5.2-2.6-5.2-5.7v-26.9l29.4,32.6H341.1z"/>
		</g>
	</g>
	<g>
		<g>
			<path class="st0" d="M170.3,315.1c-1-1.1-2.3-1.7-3.7-1.7s-2.7,0.6-3.7,1.7c-1,1.1-1.5,2.5-1.5,4.1s0.6,3,1.5,4.1
				c1,1.1,2.3,1.7,3.7,1.7s2.7-0.6,3.7-1.7c1-1.1,1.5-2.5,1.5-4.1S171.3,316.1,170.3,315.1z"/>
		</g>
	</g>
	<g>
		<g>
			<path class="st0" d="M204.9,156c-2.9,0-5.2,2.6-5.2,5.7v64.3h-58c-2.9,0-5.2,2.6-5.2,5.7c0,41.8,30.7,75.8,68.4,75.8
				s68.4-34,68.4-75.8S242.6,156,204.9,156z M210.1,167.8c12.1,1.2,23.2,6.5,32,14.7l-32,35.5V167.8z M204.9,296.2
				c-30.2,0-55.2-25.8-57.8-58.6h57.8c1.4,0,2.7-0.6,3.7-1.7c0,0,0,0,0,0l40.8-45.3c8.4,11.2,13.5,25.6,13.5,41.2
				C262.9,267.3,236.9,296.2,204.9,296.2z"/>
		</g>
	</g>
	<g>
		<g>
			<path class="st0" d="M344.7,293.6c-8.6,0-15.5,7.7-15.5,17.2c0,2.4,0.4,4.6,1.2,6.7l-29.8,33.1c-2-1.1-4.3-1.7-6.8-1.7
				c-2.4,0-4.6,0.6-6.6,1.7l-19.8-22c0.7-1.9,1.1-4.1,1.1-6.3c0-9.5-7-17.2-15.5-17.2c-8.6,0-15.5,7.7-15.5,17.2
				c0,2.6,0.5,5,1.4,7.2l-19,21.1c-2-1.1-4.3-1.7-6.7-1.7c-8.6,0-15.5,7.7-15.5,17.2c0,9.5,7,17.2,15.5,17.2
				c8.6,0,15.5-7.7,15.5-17.2c0-2.7-0.5-5.2-1.5-7.4l18.9-20.9c2.1,1.1,4.4,1.8,6.9,1.8c2.8,0,5.4-0.8,7.7-2.3l19.2,21.3
				c-1,2.3-1.5,4.8-1.5,7.5c0,9.5,7,17.2,15.5,17.2c8.6,0,15.5-7.7,15.5-17.2c0-2.6-0.5-5.1-1.5-7.3l29.5-32.8c2.2,1.3,4.7,2,7.3,2
				c8.6,0,15.5-7.7,15.5-17.2C360.3,301.4,353.3,293.6,344.7,293.6z M213.2,371.9c-2.9,0-5.2-2.6-5.2-5.7s2.3-5.7,5.2-5.7
				c1.4,0,2.6,0.6,3.6,1.6c0,0,0,0,0.1,0.1c0,0,0.1,0.1,0.1,0.1c0.9,1,1.5,2.4,1.5,4C218.4,369.3,216,371.9,213.2,371.9z
				 M252.9,328.1c-2.9,0-5.2-2.6-5.2-5.7s2.3-5.7,5.2-5.7s5.2,2.6,5.2,5.7S255.8,328.1,252.9,328.1z M293.8,371.9
				c-2.9,0-5.2-2.6-5.2-5.7s2.3-5.7,5.2-5.7c2.9,0,5.2,2.6,5.2,5.7S296.7,371.9,293.8,371.9z M344.7,316.6c-2.9,0-5.2-2.6-5.2-5.7
				s2.3-5.7,5.2-5.7c2.9,0,5.2,2.6,5.2,5.7S347.6,316.6,344.7,316.6z"/>
		</g>
	</g>
	<g>
		<g>
			<path class="st0" d="M318.9,247.4h-27.3c-2.9,0-5.2,2.6-5.2,5.7c0,3.2,2.3,5.7,5.2,5.7h27.3c2.9,0,5.2-2.6,5.2-5.7
				C324,250,321.7,247.4,318.9,247.4z"/>
		</g>
	</g>
	<g>
		<g>
			<path class="st0" d="M346.1,249.1c-1-1.1-2.3-1.7-3.7-1.7s-2.7,0.6-3.7,1.7c-1,1.1-1.5,2.5-1.5,4.1c0,1.5,0.6,3,1.5,4.1
				c1,1.1,2.3,1.7,3.7,1.7c1.4,0,2.7-0.6,3.7-1.7c1-1.1,1.5-2.5,1.5-4.1C347.6,251.6,347.1,250.1,346.1,249.1z"/>
		</g>
	</g>
	<g>
		<g>
			<path class="st0" d="M354.8,192.3h-63.2c-2.9,0-5.2,2.6-5.2,5.7s2.3,5.7,5.2,5.7h63.2c2.9,0,5.2-2.6,5.2-5.7
				S357.6,192.3,354.8,192.3z"/>
		</g>
	</g>
	<g>
		<g>
			<path class="st0" d="M354.8,219.8h-63.2c-2.9,0-5.2,2.6-5.2,5.7c0,3.2,2.3,5.7,5.2,5.7h63.2c2.9,0,5.2-2.6,5.2-5.7
				C359.9,222.4,357.6,219.8,354.8,219.8z"/>
		</g>
	</g>
</g>
</svg>
