<?xml version="1.0" encoding="utf-8"?>
<!-- Generator: Adobe Illustrator 23.0.4, SVG Export Plug-In . SVG Version: 6.00 Build 0)  -->
<svg version="1.1" id="Layer_1" xmlns="http://www.w3.org/2000/svg" xmlns:xlink="http://www.w3.org/1999/xlink" x="0px" y="0px"
	 viewBox="0 0 512 512" style="enable-background:new 0 0 512 512;" xml:space="preserve">
<style type="text/css">
	.st0{fill:#FFFFFF;}
</style>
<g transform="matrix(0.922745 0 0 0.922745 19.7773 19.7773)">
	<g id="surface1">
		<path class="st0" d="M406,205.7L338.1,118c-1.8-2.3-4.6-3.7-7.6-3.7s-5.8,1.4-7.6,3.7l-67.8,87.7c-2.1,2.8-2.5,6.4-0.8,9.5
			c1.6,3.1,4.9,5,8.5,5h24.4v44c-4.8-2.4-10.2-3.7-15.9-3.7h-17c-19.3,0-34.9,15-34.9,33.5v19c-4.8-2.4-10.2-3.7-15.9-3.7h-17
			c-19.3,0-34.9,15-34.9,33.5v19c-4.8-2.4-10.2-3.7-15.9-3.7h-17c-19.3,0-34.9,15-34.9,33.5v24.4c0,5,4.3,9.1,9.5,9.1h271.2
			c5.2,0,9.5-4.1,9.5-9.1V220.2h24.4c3.6,0,6.9-1.9,8.5-5C408.4,212.2,408.1,208.5,406,205.7z M102.7,391.5
			c0-8.4,7.1-15.3,15.9-15.3h17c8.8,0,15.9,6.9,15.9,15.3v15.3h-48.8V391.5z M170.5,391.5v-48.7c0-8.4,7.1-15.3,15.9-15.3h17
			c8.8,0,15.9,6.8,15.9,15.3v64h-48.8V391.5z M238.3,342.7V294c0-8.4,7.1-15.3,15.9-15.3h17c8.8,0,15.9,6.8,15.9,15.3v112.8h-48.8
			V342.7z M364.4,202c-5.2,0-9.5,4.1-9.5,9.1v195.6h-48.8V211.1c0-5-4.3-9.1-9.5-9.1h-15.1l49-63.3l49,63.3H364.4z"/>
	</g>
</g>
</svg>
