<?xml version="1.0" encoding="utf-8"?>
<!-- Generator: Adobe Illustrator 23.0.4, SVG Export Plug-In . SVG Version: 6.00 Build 0)  -->
<svg version="1.1" id="Capa_1" xmlns="http://www.w3.org/2000/svg" xmlns:xlink="http://www.w3.org/1999/xlink" x="0px" y="0px"
	 viewBox="0 0 512 512" style="enable-background:new 0 0 512 512;" xml:space="preserve">
<style type="text/css">
	.st0{fill:#FFFFFF;}
</style>
<g>
	<g>
		<g>
			<path class="st0" d="M450.6,271.8c-0.7-2.8-3.1-4.9-6-5.5l-26.2-5l10.2-42.5c0.5-2.2,0-4.6-1.5-6.4c-1.5-1.8-3.7-2.8-6.1-2.8
				c-0.6,0-1.2,0.1-1.8,0.2l-44,9.9l-5.1-25.3c-0.6-2.8-2.8-5.1-5.7-5.8c-2.9-0.7-6,0.2-7.9,2.5L321,232.1l15.6-106.7
				c0.4-2.8-0.9-5.6-3.3-7.2c-2.4-1.6-5.6-1.8-8.2-0.4L296.6,133L266,83.2c-1.4-2.3-3.9-3.7-6.7-3.7s-5.3,1.4-6.7,3.7L222.1,133
				l-28.6-15.2c-2.6-1.4-5.7-1.2-8.1,0.4c-2.4,1.6-3.7,4.4-3.3,7.2l15.6,106.6L162.1,191c-1.9-2.2-5-3.2-7.9-2.5
				c-2.9,0.7-5.1,3-5.7,5.8l-5.1,25.3l-44-9.9c-2.6-0.6-5.3,0.2-7.2,2c-1.9,1.8-2.7,4.5-2.1,7l10.2,42.5l-26.2,5
				c-2.9,0.6-5.3,2.7-6,5.5c-0.7,2.8,0.2,5.8,2.5,7.6l105.7,85.3l-10,18.4c-1.4,2.6-1.1,5.7,0.7,8.1c1.8,2.3,4.9,3.4,7.9,2.8
				l76.7-16.6v57.9c0,4.1,3.5,7.5,7.8,7.5c4.3,0,7.8-3.4,7.8-7.5v-57.9l76.6,16.6c0.6,0.1,1.1,0.2,1.7,0.2c2.4,0,4.7-1.1,6.2-2.9
				c1.8-2.3,2.1-5.5,0.7-8.1l-10-18.4L448,279.4C450.3,277.6,451.3,274.6,450.6,271.8z M328.4,356.5c-0.1,0-0.2,0.1-0.2,0.1
				c-3.3,2.1-4.4,6.3-2.5,9.7l5.1,9.5L267.1,362v-48.3c0-4.1-3.5-7.5-7.8-7.5c-4.3,0-7.8,3.4-7.8,7.5V362l-63.7,13.8l5.1-9.4
				c1.7-3.1,0.9-7-1.9-9.2l-98-79.1l18.1-3.4c2.1-0.4,3.9-1.6,5-3.3c1.1-1.7,1.5-3.8,1-5.8l-9.2-38.4l39.7,8.9c2,0.5,4.2,0.1,6-1
				c1.8-1.1,3-2.9,3.4-4.9l3.6-17.5l42.5,49.2c2.2,2.6,5.9,3.4,9.1,2c3.2-1.4,5-4.6,4.5-7.9l-17.2-117.9l21.6,11.5
				c3.7,1.9,8.3,0.7,10.4-2.7l27.7-45.2l27.7,45.2c2.1,3.5,6.7,4.7,10.4,2.7l21.6-11.5l-17.3,117.9c-0.5,3.3,1.4,6.5,4.5,7.9
				c3.2,1.4,6.9,0.5,9.1-2l42.5-49.3l3.6,17.5c0.4,2,1.6,3.7,3.4,4.9c1.8,1.1,3.9,1.5,6,1l39.7-8.9l-9.2,38.4c-0.5,2-0.1,4.1,1,5.8
				c1.1,1.7,3,2.9,5,3.3l18.1,3.4L328.4,356.5z"/>
		</g>
	</g>
	<g>
		<g>
			<path class="st0" d="M362.7,298.5c-2.7-3.2-7.6-3.6-10.9-1l-37.3,30.1c-3.3,2.7-3.7,7.4-1,10.6c1.5,1.8,3.7,2.7,6,2.7
				c1.8,0,3.5-0.6,5-1.7l37.3-30.1C365,306.4,365.5,301.6,362.7,298.5z"/>
		</g>
	</g>
	<g>
		<g>
			<path class="st0" d="M375.8,281.4c-10,0-10,15,0,15C385.8,296.4,385.8,281.4,375.8,281.4z"/>
		</g>
	</g>
</g>
</svg>
