<?xml version="1.0" encoding="utf-8"?>
<!-- Generator: Adobe Illustrator 23.0.4, SVG Export Plug-In . SVG Version: 6.00 Build 0)  -->
<svg version="1.1" id="_x31__x2C_5" xmlns="http://www.w3.org/2000/svg" xmlns:xlink="http://www.w3.org/1999/xlink" x="0px"
	 y="0px" viewBox="0 0 512 512" style="enable-background:new 0 0 512 512;" xml:space="preserve">
<style type="text/css">
	.st0{fill:#FFFFFF;}
</style>
<g>
	<path class="st0" d="M97.4,407.1c-28.4,0-51.4-22.5-51.4-50.2c0-27.7,23.1-50.2,51.4-50.2s51.4,22.5,51.4,50.2
		C148.8,384.6,125.7,407.1,97.4,407.1z M97.4,331.9c-14.2,0-25.7,11.3-25.7,25.1c0,13.8,11.5,25.1,25.7,25.1s25.7-11.3,25.7-25.1
		C123.1,343.1,111.5,331.9,97.4,331.9z"/>
	<path class="st0" d="M268.8,273.4c-28.4,0-51.4-22.5-51.4-50.2s23.1-50.2,51.4-50.2c28.4,0,51.4,22.5,51.4,50.2
		S297.2,273.4,268.8,273.4z M268.8,198.1c-14.2,0-25.7,11.3-25.7,25.1s11.5,25.1,25.7,25.1c14.2,0,25.7-11.3,25.7-25.1
		S283,198.1,268.8,198.1z"/>
	<path class="st0" d="M406,139.6c-28.4,0-51.4-22.5-51.4-50.2s23.1-50.2,51.4-50.2s51.4,22.5,51.4,50.2S434.3,139.6,406,139.6z
		 M406,64.3c-14.2,0-25.7,11.3-25.7,25.1s11.5,25.1,25.7,25.1s25.7-11.3,25.7-25.1S420.2,64.3,406,64.3z"/>
	<path class="st0" d="M130.8,343.4c-3.8,0-7.5-1.6-10-4.7c-4.4-5.4-3.5-13.3,2-17.6l104.6-81.6c5.5-4.3,13.6-3.5,18.1,2
		c4.4,5.4,3.5,13.3-2,17.6l-104.6,81.6C136.4,342.5,133.6,343.4,130.8,343.4L130.8,343.4z"/>
	<path class="st0" d="M299.2,206.1c-3.3,0-6.6-1.2-9.1-3.7c-5-4.9-5-12.8,0-17.7l76.5-74.6c5-4.9,13.2-4.9,18.2,0
		c5,4.9,5,12.8,0,17.7l-76.5,74.6C305.7,204.9,302.5,206.1,299.2,206.1L299.2,206.1z"/>
	<path class="st0" d="M114.5,223.2c-28.4,0-51.4-22.5-51.4-50.2s23.1-50.2,51.4-50.2s51.4,22.5,51.4,50.2S142.9,223.2,114.5,223.2z
		 M114.5,147.9c-14.2,0-25.7,11.3-25.7,25.1c0,13.8,11.5,25.1,25.7,25.1s25.7-11.3,25.7-25.1S128.7,147.9,114.5,147.9z"/>
	<path class="st0" d="M406,306.8c-28.4,0-51.4-22.5-51.4-50.2c0-27.7,23.1-50.2,51.4-50.2s51.4,22.5,51.4,50.2
		C457.4,284.3,434.3,306.8,406,306.8z M406,231.6c-14.2,0-25.7,11.3-25.7,25.1c0,13.8,11.5,25.1,25.7,25.1s25.7-11.3,25.7-25.1
		C431.7,242.8,420.2,231.6,406,231.6z"/>
	<path class="st0" d="M251.7,440.6c-28.4,0-51.4-22.5-51.4-50.2c0-27.7,23.1-50.2,51.4-50.2c28.4,0,51.4,22.5,51.4,50.2
		C303.1,418.1,280,440.6,251.7,440.6z M251.7,365.3c-14.2,0-25.7,11.3-25.7,25.1c0,13.8,11.5,25.1,25.7,25.1s25.7-11.3,25.7-25.1
		C277.4,376.6,265.8,365.3,251.7,365.3z"/>
	<path class="st0" d="M229.2,367.3c-4.3,0-8.5-2.1-11-6L126,215.2c-3.7-5.9-1.8-13.6,4.2-17.3c6.1-3.6,14-1.8,17.7,4.1l92.3,146.2
		c3.7,5.9,1.8,13.6-4.2,17.3C233.9,366.7,231.5,367.3,229.2,367.3z"/>
	<path class="st0" d="M283.7,375.2c-3.5,0-7.1-1.4-9.6-4.2c-4.7-5.2-4.2-13.1,1.1-17.7l90.2-78.3c5.3-4.6,13.4-4.2,18.2,1
		c4.7,5.2,4.2,13.1-1.1,17.7L292.3,372C289.8,374.2,286.8,375.2,283.7,375.2z"/>
</g>
</svg>
