<?xml version="1.0" encoding="utf-8"?>
<!-- Generator: Adobe Illustrator 23.0.4, SVG Export Plug-In . SVG Version: 6.00 Build 0)  -->
<svg version="1.1" id="Capa_1" xmlns="http://www.w3.org/2000/svg" xmlns:xlink="http://www.w3.org/1999/xlink" x="0px" y="0px"
	 viewBox="0 0 512 512" style="enable-background:new 0 0 512 512;" xml:space="preserve">
<style type="text/css">
	.st0{fill:#FFFFFF;}
</style>
<g>
	<g>
		<path class="st0" d="M110.9,229.8c23.4,0,39.9-20.9,30.8-39.3l44.2-27.4c13.8,9.9,34.9,8.5,46.8-3l40.6,18
			c-5.2,17.6,11,35.2,32.4,35.2c23.3,0,39.8-20.7,30.9-39l39.9-24.3c6.2,5,14.4,7.8,23.1,7.8c4.5,0,9.7-0.7,11.4-4.7
			c1.9-4.4-2.8-9.4-8.5-8.6c-7.3,1-14.5-1.8-18.3-7.2c-2.5-3.5-3.3-7.6-2.1-11.6c1.1-4,4-7.3,8.2-9.5c6.1-3.2,13.9-3,19.7,0.5
			c8.2,4.8,17.1-6,8.9-10.8c-10.9-6.4-25.3-6.8-36.7-0.9c-13.4,6.9-19.5,21.3-14.2,33.9l-40.5,24.6c-13.8-10.1-35.1-8.8-47,2.8
			l-40.6-18c5.2-17.6-11-35.2-32.4-35.2c-23.4,0-39.9,20.9-30.8,39.3L132.5,180c-21.3-15.3-55-2-55,21.6
			C77.5,217.2,92.5,229.8,110.9,229.8L110.9,229.8z M305.7,169.9c9.9,0,17.9,6.8,17.9,15.1s-8,15.1-17.9,15.1
			c-9.9,0-17.9-6.8-17.9-15.1S295.8,169.9,305.7,169.9z M207.5,126.4c9.9,0,17.9,6.8,17.9,15.1c0,8.3-8,15.1-17.9,15.1
			c-9.9,0-17.9-6.8-17.9-15.1C189.6,133.2,197.6,126.4,207.5,126.4z M110.9,186.4c9.9,0,17.9,6.8,17.9,15.1c0,8.3-8,15.1-17.9,15.1
			c-9.9,0-17.9-6.8-17.9-15.1C93.1,193.2,101.1,186.4,110.9,186.4z"/>
		<path class="st0" d="M401.1,267.5c-23.7,0-40.2,21.4-30.5,39.8l-40,24.3c-13.9-10.9-36.5-9.5-48.5,3l-40.2-17.8
			c6-17.8-10.3-36.1-32.1-36.1c-23.8,0-40.4,21.6-30.4,40l-43.8,27.2c-21.1-16.1-55.8-2.9-55.8,21c0,15.6,15,28.3,33.4,28.3
			c23,0,39.5-20.3,31.2-38.5l44.6-27.7c13.5,9.1,33.5,7.8,45.3-2.9l41.1,18.2c-4.4,17.3,11.7,34.3,32.7,34.3
			c22.9,0,39.3-20,31.3-38.2l40.8-24.8c21.4,14.8,54.5,1.4,54.5-21.9C434.5,280.2,419.5,267.5,401.1,267.5L401.1,267.5z
			 M113.2,384.1c-9.9,0-17.9-6.8-17.9-15.1c0-8.3,8-15.1,17.9-15.1c9.9,0,17.9,6.8,17.9,15.1C131,377.3,123,384.1,113.2,384.1z
			 M209.7,324.1c-9.9,0-17.9-6.8-17.9-15.1s8-15.1,17.9-15.1c9.9,0,17.9,6.8,17.9,15.1S219.6,324.1,209.7,324.1z M307.9,367.5
			c-9.9,0-17.9-6.8-17.9-15.1c0-8.3,8-15.1,17.9-15.1c9.9,0,17.9,6.8,17.9,15.1C325.8,360.7,317.8,367.5,307.9,367.5z M401.1,311
			c-9.9,0-17.9-6.8-17.9-15.1c0-8.3,8-15.1,17.9-15.1c9.9,0,17.9,6.8,17.9,15.1C418.9,304.2,410.9,311,401.1,311z"/>
		<path class="st0" d="M433.9,133.7c-0.7-2.7-3.4-4.9-6.7-5.2c-3.2-0.3-6.4,1.1-7.9,3.6c-3.1,5.2,3.1,11.1,9.5,9.1
			C432.5,140.1,434.6,136.8,433.9,133.7L433.9,133.7z"/>
	</g>
</g>
</svg>
