<?xml version="1.0" encoding="utf-8"?>
<!-- Generator: Adobe Illustrator 23.0.4, SVG Export Plug-In . SVG Version: 6.00 Build 0)  -->
<svg version="1.1" id="Capa_1" xmlns="http://www.w3.org/2000/svg" xmlns:xlink="http://www.w3.org/1999/xlink" x="0px" y="0px"
	 viewBox="0 0 512 512" style="enable-background:new 0 0 512 512;" xml:space="preserve">
<style type="text/css">
	.st0{fill:#FFFFFF;}
</style>
<g>
	<g>
		<path class="st0" d="M85.8,198.2c27.5,0,46.9-27.3,36.2-51.1l51.9-35.7c16.2,12.9,41,11.1,55-3.9l47.7,23.4
			c-6.1,22.9,12.9,45.8,38.1,45.8c27.4,0,46.7-26.9,36.3-50.8l46.9-31.6c7.3,6.5,17,10.2,27.1,10.2c5.3,0,11.4-1,13.4-6.2
			c2.2-5.8-3.3-12.2-9.9-11.2c-8.6,1.3-17-2.4-21.5-9.3c-3-4.5-3.8-9.9-2.5-15.1c1.3-5.2,4.7-9.6,9.6-12.3
			c7.2-4.1,16.3-3.9,23.2,0.7c9.6,6.3,20.1-7.8,10.4-14.1c-12.8-8.4-29.8-8.8-43.1-1.2c-15.8,9-22.9,27.8-16.6,44.2l-47.6,32.1
			c-16.2-13.2-41.2-11.4-55.3,3.7l-47.7-23.4c6.1-22.9-12.9-45.8-38.1-45.8c-27.5,0-46.9,27.3-36.2,51.1l-51.9,35.7
			c-25-19.9-64.6-2.6-64.6,28.1C46.6,181.7,64.2,198.2,85.8,198.2L85.8,198.2z M314.6,120.1c11.6,0,21,8.8,21,19.7
			s-9.4,19.7-21,19.7c-11.6,0-21-8.8-21-19.7S303.1,120.1,314.6,120.1z M199.2,63.5c11.6,0,21,8.8,21,19.7c0,10.9-9.4,19.7-21,19.7
			c-11.6,0-21-8.8-21-19.7C178.2,72.3,187.7,63.5,199.2,63.5z M85.8,141.6c11.6,0,21,8.8,21,19.7c0,10.9-9.4,19.7-21,19.7
			c-11.6,0-21-8.8-21-19.7C64.8,150.5,74.2,141.6,85.8,141.6z"/>
		<path class="st0" d="M424.1,168.6c-29.2,0-48.6,30.5-34.4,54.6l-46.1,31.1c-16.1-16.5-44.9-15.5-59.7,2.1l-47-23.1
			c7.5-23.3-11.7-47.5-37.6-47.5c-29.4,0-48.7,30.8-34.2,54.9l-50.6,34.9c-23.9-23.9-67.9-7.5-67.9,25.2c0,20.3,17.6,36.8,39.3,36.8
			c25.7,0,44.8-23.9,37.7-47l54.1-37.2c15.6,9.7,37,7.5,50-5.2l48.6,23.8c-4.8,22.4,14.1,44.1,38.5,44.1c25.5,0,44.6-23.6,37.8-46.6
			l49.6-33.4c25.6,16.3,61.3-1.6,61.3-30.5C463.3,185.1,445.7,168.6,424.1,168.6L424.1,168.6z M85.8,320.4c-11.6,0-21-8.8-21-19.7
			c0-10.9,9.4-19.7,21-19.7c11.6,0,21,8.8,21,19.7C106.8,311.6,97.4,320.4,85.8,320.4z M199.2,242.3c-11.6,0-21-8.8-21-19.7
			c0-10.9,9.4-19.7,21-19.7c11.6,0,21,8.8,21,19.7C220.2,233.5,210.8,242.3,199.2,242.3z M314.6,298.9c-11.6,0-21-8.8-21-19.7
			s9.4-19.7,21-19.7c11.6,0,21,8.8,21,19.7S326.2,298.9,314.6,298.9z M424.1,225.2c-11.6,0-21-8.8-21-19.7s9.4-19.7,21-19.7
			s21,8.8,21,19.7S435.7,225.2,424.1,225.2z"/>
		<path class="st0" d="M424.1,294.4c-27.8,0-47.2,27.8-35.9,51.8l-47,31.7c-16.4-14.2-42.9-12.3-57,3.9L237,358.6
			c7.1-23.1-12.1-47-37.7-47c-28,0-47.4,28.2-35.7,52.1l-51.5,35.5c-24.8-21-65.5-3.8-65.5,27.4c0,20.3,17.6,36.8,39.3,36.8
			c27.1,0,46.4-26.4,36.6-50.1l52.4-36.1c15.9,11.9,39.4,10.2,53.2-3.7l48.3,23.7c-5.2,22.6,13.7,44.7,38.4,44.7
			c26.9,0,46.2-26,36.8-49.7l47.9-32.3c25.2,19.3,64,1.8,64-28.6C463.3,310.9,445.7,294.4,424.1,294.4L424.1,294.4z M85.8,446.2
			c-11.6,0-21-8.8-21-19.7s9.4-19.7,21-19.7c11.6,0,21,8.8,21,19.7S97.4,446.2,85.8,446.2z M199.2,368.1c-11.6,0-21-8.8-21-19.7
			s9.4-19.7,21-19.7c11.6,0,21,8.8,21,19.7S210.8,368.1,199.2,368.1z M314.6,424.7c-11.6,0-21-8.8-21-19.7c0-10.9,9.4-19.7,21-19.7
			c11.6,0,21,8.8,21,19.7C335.6,415.8,326.2,424.7,314.6,424.7z M424.1,351c-11.6,0-21-8.8-21-19.7c0-10.9,9.4-19.7,21-19.7
			s21,8.8,21,19.7C445.1,342.1,435.7,351,424.1,351z"/>
		<path class="st0" d="M465.3,72.9c-0.8-3.6-4-6.4-7.8-6.8c-3.8-0.4-7.6,1.5-9.3,4.7c-3.6,6.8,3.6,14.5,11.2,11.9
			C463.6,81.2,466.1,77,465.3,72.9L465.3,72.9z"/>
	</g>
</g>
</svg>
